<svg width="249" height="123" viewBox="0 0 249 123" fill="none" xmlns="http://www.w3.org/2000/svg">
<rect width="500" height="500" transform="translate(-122 -271)" fill="white"/>
<path d="M60.9922 86.5181H19V16.4986H59.3809V29.3404H34.7715V44.9166H57.6719V57.7095H34.7715V73.7252H60.9922V86.5181Z" fill="url(#paint0_linear_64_2)"/>
<path d="M186.128 7L161.983 33.709L160.992 21.0181L150.775 13.8218L186.128 7Z" fill="url(#paint1_linear_64_2)"/>
<path d="M180.492 9.51812C139.31 40.1138 114.052 53.5048 57.6586 57.7167L57.5071 44.9626C107.664 44.2021 134.254 34.368 180.492 9.51812Z" fill="url(#paint2_linear_64_2)"/>
<path d="M120.203 84.5098C115.092 86.9837 108.419 88.2207 100.184 88.2207C89.4414 88.2207 80.9941 85.0632 74.8418 78.748C68.6895 72.4329 65.6133 64.0182 65.6133 53.5039C65.6133 42.306 69.0638 33.224 75.9648 26.2578C82.8984 19.2917 91.8828 15.8086 102.918 15.8086C109.754 15.8086 115.516 16.6712 120.203 18.3965V33.582C115.516 30.7826 110.177 29.3828 104.188 29.3828C97.612 29.3828 92.306 31.4499 88.2695 35.584C84.2331 39.7181 82.2148 45.3171 82.2148 52.3809C82.2148 59.1517 84.1191 64.5553 87.9277 68.5918C91.7363 72.5957 96.8633 74.5977 103.309 74.5977C109.461 74.5977 115.092 73.1003 120.203 70.1055V84.5098ZM175.818 66.3945H143.201C143.722 73.6536 148.296 77.2832 156.922 77.2832C162.423 77.2832 167.257 75.9811 171.424 73.377V84.5098C166.801 86.9837 160.796 88.2207 153.406 88.2207C145.333 88.2207 139.067 85.9909 134.607 81.5312C130.148 77.0391 127.918 70.7891 127.918 62.7812C127.918 54.4805 130.327 47.9049 135.145 43.0547C139.962 38.2044 145.887 35.7793 152.918 35.7793C160.21 35.7793 165.841 37.944 169.812 42.2734C173.816 46.6029 175.818 52.4785 175.818 59.9004V66.3945ZM161.512 56.9219C161.512 49.7604 158.615 46.1797 152.82 46.1797C150.346 46.1797 148.198 47.2051 146.375 49.2559C144.585 51.3066 143.494 53.862 143.104 56.9219H161.512ZM200.428 87H184.998V12.9766H200.428V87ZM228.846 87H213.416V12.9766H228.846V87Z" fill="url(#paint3_linear_64_2)"/>
<g filter="url(#filter0_f_64_2)">
<ellipse cx="127.5" cy="94" rx="104.5" ry="3" fill="#D9D9D9"/>
</g>
<g filter="url(#filter1_b_64_2)">
<ellipse cx="127.5" cy="94" rx="104.5" ry="3" fill="#D9D9D9"/>
</g>
<path d="M50.1689 113H47.8325V106.716C47.8325 106.037 47.8618 105.288 47.9204 104.467H47.8618C47.7397 105.112 47.6299 105.576 47.5322 105.859L45.0713 113H43.1377L40.6328 105.932C40.5645 105.742 40.4546 105.253 40.3032 104.467H40.2373C40.3008 105.502 40.3325 106.411 40.3325 107.192V113H38.2012V102.497H41.6655L43.8115 108.723C43.9824 109.221 44.1069 109.721 44.1851 110.224H44.229C44.3608 109.643 44.5 109.138 44.6465 108.708L46.7925 102.497H50.1689V113ZM64.5244 113H62.188V106.716C62.188 106.037 62.2173 105.288 62.2759 104.467H62.2173C62.0952 105.112 61.9854 105.576 61.8877 105.859L59.4268 113H57.4932L54.9883 105.932C54.9199 105.742 54.8101 105.253 54.6587 104.467H54.5928C54.6562 105.502 54.688 106.411 54.688 107.192V113H52.5566V102.497H56.021L58.167 108.723C58.3379 109.221 58.4624 109.721 58.5405 110.224H58.5845C58.7163 109.643 58.8555 109.138 59.002 108.708L61.1479 102.497H64.5244V113ZM71.1235 115.388H69.2339C67.6567 113.649 66.8682 111.513 66.8682 108.979C66.8682 106.533 67.6567 104.372 69.2339 102.497H71.1089C69.6294 104.46 68.8896 106.621 68.8896 108.979C68.8896 111.337 69.6343 113.474 71.1235 115.388ZM72.4492 113V102.497H76.1699C79.9004 102.497 81.7656 104.204 81.7656 107.617C81.7656 109.252 81.2554 110.559 80.2349 111.535C79.2192 112.512 77.8643 113 76.1699 113H72.4492ZM74.8149 104.423V111.081H75.9868C77.0122 111.081 77.8154 110.773 78.3965 110.158C78.9824 109.543 79.2754 108.706 79.2754 107.646C79.2754 106.645 78.9849 105.859 78.4038 105.288C77.8276 104.711 77.0171 104.423 75.9722 104.423H74.8149ZM92.0708 108.452C92.0708 111.606 90.6011 113.183 87.6616 113.183C84.8101 113.183 83.3843 111.643 83.3843 108.562V102.497H85.7573V108.591C85.7573 110.29 86.4214 111.14 87.7495 111.14C89.0532 111.14 89.7051 110.319 89.7051 108.679V102.497H92.0708V108.452ZM95.1689 115.388H93.2939C94.7881 113.483 95.5352 111.347 95.5352 108.979C95.5352 106.63 94.7881 104.47 93.2939 102.497H95.1836C96.7656 104.377 97.5566 106.538 97.5566 108.979C97.5566 111.494 96.7607 113.63 95.1689 115.388ZM116.014 113H113.677V106.716C113.677 106.037 113.707 105.288 113.765 104.467H113.707C113.584 105.112 113.475 105.576 113.377 105.859L110.916 113H108.982L106.478 105.932C106.409 105.742 106.299 105.253 106.148 104.467H106.082C106.146 105.502 106.177 106.411 106.177 107.192V113H104.046V102.497H107.51L109.656 108.723C109.827 109.221 109.952 109.721 110.03 110.224H110.074C110.206 109.643 110.345 109.138 110.491 108.708L112.637 102.497H116.014V113ZM125.301 113H122.994V111.857H122.957C122.386 112.741 121.622 113.183 120.665 113.183C118.926 113.183 118.057 112.131 118.057 110.026V105.5H120.364V109.821C120.364 110.881 120.784 111.411 121.624 111.411C122.039 111.411 122.371 111.267 122.62 110.979C122.869 110.686 122.994 110.29 122.994 109.792V105.5H125.301V113ZM129.571 113H127.256V101.896H129.571V113ZM133.833 113H131.519V101.896H133.833V113ZM142.022 113H139.832V111.923H139.803C139.3 112.763 138.555 113.183 137.569 113.183C136.841 113.183 136.268 112.978 135.848 112.568C135.433 112.153 135.225 111.601 135.225 110.913C135.225 109.458 136.087 108.618 137.811 108.393L139.847 108.122C139.847 107.302 139.402 106.892 138.514 106.892C137.62 106.892 136.771 107.158 135.965 107.69V105.947C136.287 105.781 136.727 105.634 137.283 105.507C137.845 105.38 138.355 105.317 138.814 105.317C140.953 105.317 142.022 106.384 142.022 108.518V113ZM139.847 109.953V109.448L138.484 109.624C137.732 109.721 137.356 110.061 137.356 110.642C137.356 110.905 137.447 111.123 137.627 111.293C137.813 111.459 138.062 111.542 138.375 111.542C138.809 111.542 139.163 111.394 139.437 111.096C139.71 110.793 139.847 110.412 139.847 109.953ZM151.097 113H148.79V108.833C148.79 107.67 148.375 107.089 147.544 107.089C147.144 107.089 146.814 107.243 146.556 107.551C146.297 107.858 146.167 108.249 146.167 108.723V113H143.853V105.5H146.167V106.687H146.197C146.749 105.773 147.552 105.317 148.606 105.317C150.267 105.317 151.097 106.347 151.097 108.408V113ZM159.175 113H156.985V111.923H156.956C156.453 112.763 155.708 113.183 154.722 113.183C153.995 113.183 153.421 112.978 153.001 112.568C152.586 112.153 152.378 111.601 152.378 110.913C152.378 109.458 153.24 108.618 154.964 108.393L157 108.122C157 107.302 156.556 106.892 155.667 106.892C154.773 106.892 153.924 107.158 153.118 107.69V105.947C153.44 105.781 153.88 105.634 154.437 105.507C154.998 105.38 155.508 105.317 155.967 105.317C158.106 105.317 159.175 106.384 159.175 108.518V113ZM157 109.953V109.448L155.638 109.624C154.886 109.721 154.51 110.061 154.51 110.642C154.51 110.905 154.6 111.123 154.781 111.293C154.966 111.459 155.215 111.542 155.528 111.542C155.962 111.542 156.316 111.394 156.59 111.096C156.863 110.793 157 110.412 157 109.953ZM165.086 109.807H161.08V108.188H165.086V109.807ZM176.534 113H173.956L173.208 110.664H169.473L168.733 113H166.17L169.993 102.497H172.798L176.534 113ZM172.667 108.847L171.539 105.317C171.456 105.053 171.397 104.738 171.363 104.372H171.304C171.28 104.68 171.219 104.985 171.121 105.288L169.979 108.847H172.667ZM189.527 113H187.22V108.723C187.22 107.634 186.819 107.089 186.019 107.089C185.638 107.089 185.328 107.253 185.088 107.58C184.849 107.907 184.729 108.315 184.729 108.803V113H182.415V108.679C182.415 107.619 182.022 107.089 181.236 107.089C180.84 107.089 180.523 107.246 180.284 107.558C180.049 107.871 179.932 108.295 179.932 108.833V113H177.618V105.5H179.932V106.672H179.961C180.201 106.271 180.535 105.947 180.965 105.698C181.399 105.444 181.873 105.317 182.386 105.317C183.445 105.317 184.17 105.783 184.561 106.716C185.132 105.783 185.972 105.317 187.081 105.317C188.711 105.317 189.527 106.323 189.527 108.334V113ZM193.702 112.128H193.672V113H191.358V101.896H193.672V106.628H193.702C194.273 105.754 195.086 105.317 196.141 105.317C197.107 105.317 197.852 105.649 198.375 106.313C198.897 106.977 199.158 107.885 199.158 109.038C199.158 110.288 198.853 111.291 198.243 112.048C197.632 112.805 196.817 113.183 195.796 113.183C194.874 113.183 194.175 112.832 193.702 112.128ZM193.636 108.964V109.733C193.636 110.217 193.775 110.617 194.053 110.935C194.332 111.252 194.688 111.411 195.123 111.411C195.65 111.411 196.058 111.208 196.346 110.803C196.639 110.393 196.785 109.814 196.785 109.067C196.785 108.447 196.651 107.963 196.382 107.617C196.119 107.265 195.74 107.089 195.247 107.089C194.783 107.089 194.397 107.263 194.09 107.609C193.787 107.956 193.636 108.408 193.636 108.964ZM206.753 113H204.563V111.923H204.534C204.031 112.763 203.287 113.183 202.3 113.183C201.573 113.183 200.999 112.978 200.579 112.568C200.164 112.153 199.957 111.601 199.957 110.913C199.957 109.458 200.818 108.618 202.542 108.393L204.578 108.122C204.578 107.302 204.134 106.892 203.245 106.892C202.352 106.892 201.502 107.158 200.696 107.69V105.947C201.019 105.781 201.458 105.634 202.015 105.507C202.576 105.38 203.086 105.317 203.545 105.317C205.684 105.317 206.753 106.384 206.753 108.518V113ZM204.578 109.953V109.448L203.216 109.624C202.464 109.721 202.088 110.061 202.088 110.642C202.088 110.905 202.178 111.123 202.359 111.293C202.544 111.459 202.793 111.542 203.106 111.542C203.541 111.542 203.895 111.394 204.168 111.096C204.441 110.793 204.578 110.412 204.578 109.953ZM210.899 113H208.584V101.896H210.899V113ZM219.087 113H216.897V111.923H216.868C216.365 112.763 215.621 113.183 214.634 113.183C213.907 113.183 213.333 112.978 212.913 112.568C212.498 112.153 212.291 111.601 212.291 110.913C212.291 109.458 213.152 108.618 214.876 108.393L216.912 108.122C216.912 107.302 216.468 106.892 215.579 106.892C214.686 106.892 213.836 107.158 213.03 107.69V105.947C213.353 105.781 213.792 105.634 214.349 105.507C214.91 105.38 215.42 105.317 215.879 105.317C218.018 105.317 219.087 106.384 219.087 108.518V113ZM216.912 109.953V109.448L215.55 109.624C214.798 109.721 214.422 110.061 214.422 110.642C214.422 110.905 214.512 111.123 214.693 111.293C214.878 111.459 215.127 111.542 215.44 111.542C215.875 111.542 216.229 111.394 216.502 111.096C216.775 110.793 216.912 110.412 216.912 109.953Z" fill="black"/>
<defs>
<filter id="filter0_f_64_2" x="18" y="86" width="219" height="16" filterUnits="userSpaceOnUse" color-interpolation-filters="sRGB">
<feFlood flood-opacity="0" result="BackgroundImageFix"/>
<feBlend mode="normal" in="SourceGraphic" in2="BackgroundImageFix" result="shape"/>
<feGaussianBlur stdDeviation="2.5" result="effect1_foregroundBlur_64_2"/>
</filter>
<filter id="filter1_b_64_2" x="18" y="86" width="219" height="16" filterUnits="userSpaceOnUse" color-interpolation-filters="sRGB">
<feFlood flood-opacity="0" result="BackgroundImageFix"/>
<feGaussianBlur in="BackgroundImageFix" stdDeviation="2.5"/>
<feComposite in2="SourceAlpha" operator="in" result="effect1_backgroundBlur_64_2"/>
<feBlend mode="normal" in="SourceGraphic" in2="effect1_backgroundBlur_64_2" result="shape"/>
</filter>
<linearGradient id="paint0_linear_64_2" x1="28.9922" y1="54.5181" x2="112.835" y2="104.044" gradientUnits="userSpaceOnUse">
<stop stop-color="#FC0808"/>
<stop offset="0.67" stop-color="#0075FF"/>
</linearGradient>
<linearGradient id="paint1_linear_64_2" x1="28.9922" y1="54.5181" x2="112.835" y2="104.044" gradientUnits="userSpaceOnUse">
<stop stop-color="#FC0808"/>
<stop offset="0.67" stop-color="#0075FF"/>
</linearGradient>
<linearGradient id="paint2_linear_64_2" x1="28.9922" y1="54.5181" x2="112.835" y2="104.044" gradientUnits="userSpaceOnUse">
<stop stop-color="#FC0808"/>
<stop offset="0.67" stop-color="#0075FF"/>
</linearGradient>
<linearGradient id="paint3_linear_64_2" x1="221" y1="49.5" x2="83.5" y2="69" gradientUnits="userSpaceOnUse">
<stop stop-color="#FF0000"/>
<stop offset="1" stop-color="#0500FF"/>
</linearGradient>
</defs>
</svg>
